<svg width="24" height="24" viewBox="0 0 24 24" fill="none" xmlns="http://www.w3.org/2000/svg">
<ellipse cx="11.9375" cy="12" rx="11.25" ry="12" fill="white"/>
<path d="M17.8939 6.17382C16.7935 5.62986 15.6215 5.22904 14.3868 5C14.2347 5.2863 14.0558 5.67757 13.9395 5.9925C12.6332 5.78255 11.3359 5.78255 10.0565 5.9925C9.93129 5.67757 9.75235 5.2863 9.60026 5C8.3656 5.22904 7.19357 5.62986 6.09311 6.17382C3.8743 9.743 3.27486 13.2263 3.57011 16.6524C5.04633 17.8262 6.46887 18.5324 7.87352 19C8.22245 18.4942 8.52664 17.9502 8.79504 17.3872C8.28508 17.1868 7.80195 16.9291 7.34566 16.6333C7.47092 16.5378 7.58722 16.4329 7.70353 16.3374C10.5039 17.7307 13.5368 17.7307 16.3014 16.3374C16.4177 16.4424 16.534 16.5378 16.6593 16.6333C16.203 16.9291 15.7109 17.1772 15.2099 17.3872C15.4783 17.9502 15.7825 18.4942 16.1314 19C17.5361 18.5324 18.9676 17.8262 20.4348 16.6524C20.7838 12.6728 19.8354 9.22767 17.9118 6.17382H17.8939ZM9.17081 14.5528C8.32981 14.5528 7.64091 13.7226 7.64091 12.7014C7.64091 11.6803 8.31192 10.8501 9.17081 10.8501C10.0297 10.8501 10.7097 11.6803 10.7007 12.7014C10.7007 13.713 10.0297 14.5528 9.17081 14.5528ZM14.8162 14.5528C13.9752 14.5528 13.2863 13.7226 13.2863 12.7014C13.2863 11.6803 13.9573 10.8501 14.8162 10.8501C15.6751 10.8501 16.3551 11.6803 16.3461 12.7014C16.3461 13.713 15.6751 14.5528 14.8162 14.5528Z" fill="black"/>
</svg>
