<svg width="23" height="24" viewBox="0 0 23 24" fill="none" xmlns="http://www.w3.org/2000/svg">
<path fill-rule="evenodd" clip-rule="evenodd" d="M6.64375 10.79C7.99375 13.62 10.1688 15.93 12.8219 17.38L14.8844 15.18C15.1375 14.91 15.5125 14.82 15.8406 14.94C16.8906 15.31 18.025 15.51 19.1875 15.51C19.7031 15.51 20.125 15.96 20.125 16.51V20C20.125 20.55 19.7031 21 19.1875 21C10.3844 21 3.25 13.39 3.25 4C3.25 3.45 3.67188 3 4.1875 3H7.46875C7.98438 3 8.40625 3.45 8.40625 4C8.40625 5.25 8.59375 6.45 8.94063 7.57C9.04375 7.92 8.96875 8.31 8.70625 8.59L6.64375 10.79Z" fill="#F6F5F8"/>
</svg>
