<svg width="24" height="24" viewBox="0 0 24 24" fill="none" xmlns="http://www.w3.org/2000/svg">
<ellipse cx="11.9375" cy="12" rx="11.25" ry="12" fill="white"/>
<path fill-rule="evenodd" clip-rule="evenodd" d="M8.35456 19V9.55375H5.54131V18.9999L8.35456 19ZM6.94823 8.26451C7.92896 8.26451 8.53988 7.53854 8.53988 6.63208C8.52133 5.70547 7.92896 5 6.96662 5C6.00413 5.00003 5.375 5.7055 5.375 6.63211C5.375 7.53857 5.98558 8.26454 6.92971 8.26454L6.94823 8.26451ZM9.91158 19C9.91158 19 9.94849 10.4401 9.91158 9.55378H12.7253V10.9237H12.7066C13.0766 10.2791 13.7431 9.33196 15.2607 9.33196C17.1122 9.33196 18.5 10.6821 18.5 13.5836V19H15.6868V13.9465C15.6868 12.6768 15.2797 11.8103 14.2613 11.8103C13.4843 11.8103 13.0212 12.3944 12.8178 12.9591C12.7434 13.1601 12.7253 13.4424 12.7253 13.7247V19H9.91158Z" fill="black"/>
</svg>
