<svg width="73" height="70" viewBox="0 0 73 70" fill="none" xmlns="http://www.w3.org/2000/svg">
<path d="M0.0471191 16.6245C0.0471191 7.78796 7.21056 0.624512 16.0471 0.624512H56.0471C64.8837 0.624512 72.0471 7.78796 72.0471 16.6245V53.6245C72.0471 62.4611 64.8837 69.6245 56.0471 69.6245H16.0471C7.21056 69.6245 0.0471191 62.4611 0.0471191 53.6245V16.6245Z" fill="#177FBF"/>
<path d="M14.292 35.163C14.3295 35.163 14.362 35.153 14.397 35.153L16.747 45.718C15.8077 46.1345 14.9857 46.7764 14.354 47.5867C13.7223 48.3971 13.3004 49.3509 13.1257 50.3634C12.951 51.376 13.029 52.416 13.3526 53.3912C13.6763 54.3664 14.2357 55.2466 14.9812 55.9537C15.7267 56.6608 16.6351 57.173 17.626 57.4448C18.617 57.7166 19.6596 57.7396 20.6615 57.5118C21.6635 57.2839 22.5937 56.8123 23.3696 56.1387C24.1455 55.4651 24.7432 54.6105 25.1095 53.6505L43.0645 56.643C43.107 57.75 43.444 58.8256 44.0408 59.759C44.6375 60.6923 45.4725 61.4495 46.4595 61.9526C47.4465 62.4557 48.5498 62.6864 49.6557 62.6209C50.7616 62.5554 51.8299 62.196 52.7506 61.58C53.6714 60.9639 54.4111 60.1134 54.8935 59.1161C55.3759 58.1189 55.5836 57.011 55.495 55.9067C55.4065 54.8024 55.0251 53.7417 54.3899 52.8341C53.7548 51.9264 52.8891 51.2045 51.882 50.743L56.637 30.148C56.6895 30.148 56.737 30.163 56.792 30.163C57.8646 30.1658 58.9199 29.8925 59.8563 29.3694C60.7927 28.8464 61.5788 28.0911 62.1388 27.1763C62.6988 26.2615 63.014 25.218 63.054 24.1461C63.094 23.0743 62.8575 22.0102 62.3672 21.0562C61.8769 20.1022 61.1494 19.2904 60.2546 18.699C59.3598 18.1076 58.3278 17.7564 57.258 17.6792C56.1882 17.602 55.1165 17.8015 54.1461 18.2584C53.1757 18.7153 52.3391 19.4142 51.717 20.288L40.392 15.258C40.6128 14.2853 40.5976 13.2738 40.3476 12.3082C40.0976 11.3426 39.6202 10.4508 38.9551 9.70739C38.2901 8.96399 37.4568 8.39056 36.5248 8.03502C35.5929 7.67949 34.5894 7.55217 33.5982 7.66371C32.607 7.77526 31.6568 8.12242 30.8272 8.67619C29.9976 9.22996 29.3126 9.97425 28.8294 10.8469C28.3462 11.7195 28.0788 12.6951 28.0497 13.6921C28.0206 14.6891 28.2306 15.6787 28.662 16.578L18.4195 24.2555C17.6633 23.5859 16.7558 23.11 15.775 22.8687C14.7941 22.6273 13.7694 22.6278 12.7888 22.87C11.8082 23.1122 10.9011 23.589 10.1455 24.2592C9.38986 24.9295 8.80831 25.7732 8.45083 26.7179C8.09335 27.6626 7.97064 28.68 8.09324 29.6826C8.21584 30.6852 8.58009 31.643 9.15467 32.4737C9.72925 33.3044 10.497 33.9832 11.3918 34.4516C12.2867 34.9201 13.282 35.1642 14.292 35.163ZM16.837 34.608C18.2369 33.9786 19.3576 32.8579 19.987 31.458L30.552 33.808C30.552 33.843 30.542 33.8755 30.542 33.913C30.5416 35.1379 30.9034 36.3357 31.582 37.3555L22.732 46.2055C21.7133 45.5263 20.5164 45.1636 19.292 45.163C19.257 45.163 19.222 45.173 19.187 45.173L16.837 34.608ZM34.797 28.0205C33.9835 28.2946 33.2352 28.7333 32.5986 29.3092C31.9621 29.8851 31.4509 30.5859 31.097 31.368L20.532 29.018C20.532 28.983 20.542 28.9505 20.542 28.913C20.5375 27.9905 20.3265 27.0808 19.9245 26.2505L30.1645 18.5705C31.1774 19.469 32.4569 20.0109 33.807 20.113L34.797 28.0205ZM40.542 32.663V35.163C40.542 35.826 40.2786 36.4619 39.8098 36.9308C39.341 37.3996 38.7051 37.663 38.042 37.663H35.542C34.879 37.663 34.2431 37.3996 33.7743 36.9308C33.3054 36.4619 33.042 35.826 33.042 35.163V32.663C33.042 31.9999 33.3054 31.3641 33.7743 30.8952C34.2431 30.4264 34.879 30.163 35.542 30.163H38.042C38.7051 30.163 39.341 30.4264 39.8098 30.8952C40.2786 31.3641 40.542 31.9999 40.542 32.663ZM43.4745 54.1755L25.517 51.183C25.4806 50.0388 25.1284 48.927 24.4995 47.9705L33.3495 39.1205C34.118 39.6433 34.9972 39.9809 35.9181 40.1067C36.839 40.2325 37.7765 40.1431 38.657 39.8455L45.237 51.6955C44.4528 52.3636 43.8464 53.2157 43.472 54.1755H43.4745ZM20.542 55.163H18.042C17.379 55.163 16.7431 54.8996 16.2743 54.4308C15.8054 53.9619 15.542 53.326 15.542 52.663V50.163C15.542 49.4999 15.8054 48.8641 16.2743 48.3952C16.7431 47.9264 17.379 47.663 18.042 47.663H20.542C21.2051 47.663 21.841 47.9264 22.3098 48.3952C22.7786 48.8641 23.042 49.4999 23.042 50.163V52.663C23.042 53.326 22.7786 53.9619 22.3098 54.4308C21.841 54.8996 21.2051 55.163 20.542 55.163ZM53.042 55.163V57.663C53.042 58.326 52.7786 58.9619 52.3098 59.4308C51.841 59.8996 51.2051 60.163 50.542 60.163H48.042C47.379 60.163 46.7431 59.8996 46.2743 59.4308C45.8054 58.9619 45.542 58.326 45.542 57.663V55.163C45.542 54.4999 45.8054 53.8641 46.2743 53.3952C46.7431 52.9264 47.379 52.663 48.042 52.663H50.542C51.2051 52.663 51.841 52.9264 52.3098 53.3952C52.7786 53.8641 53.042 54.4999 53.042 55.163ZM49.447 50.178C49.397 50.178 49.347 50.163 49.292 50.163C48.6569 50.172 48.027 50.2791 47.4245 50.4805L40.8445 38.6305C41.7529 37.8826 42.4226 36.8852 42.7709 35.7612C43.1192 34.6373 43.1309 33.436 42.8045 32.3055L51.8995 27.7555C52.5102 28.5386 53.2987 29.165 54.1995 29.583L49.447 50.178ZM55.542 20.163H58.042C58.7051 20.163 59.341 20.4264 59.8098 20.8952C60.2786 21.3641 60.542 21.9999 60.542 22.663V25.163C60.542 25.826 60.2786 26.4619 59.8098 26.9308C59.341 27.3996 58.7051 27.663 58.042 27.663H55.542C54.879 27.663 54.2431 27.3996 53.7743 26.9308C53.3054 26.4619 53.042 25.826 53.042 25.163V22.663C53.042 21.9999 53.3054 21.3641 53.7743 20.8952C54.2431 20.4264 54.879 20.163 55.542 20.163ZM50.6945 22.5705C50.4658 23.5445 50.4951 24.5613 50.7795 25.5205L41.6845 30.0705C41.1534 29.3935 40.4873 28.8344 39.7285 28.4285C38.9698 28.0227 38.135 27.779 37.277 27.713L36.287 19.8055C37.5249 19.3891 38.6012 18.5952 39.3645 17.5355L50.6945 22.5705ZM30.542 15.163V12.663C30.542 11.9999 30.8054 11.3641 31.2743 10.8952C31.7431 10.4264 32.379 10.163 33.042 10.163H35.542C36.2051 10.163 36.841 10.4264 37.3098 10.8952C37.7786 11.3641 38.042 11.9999 38.042 12.663V15.163C38.042 15.826 37.7786 16.4619 37.3098 16.9308C36.841 17.3996 36.2051 17.663 35.542 17.663H33.042C32.379 17.663 31.7431 17.3996 31.2743 16.9308C30.8054 16.4619 30.542 15.826 30.542 15.163ZM10.542 27.663C10.542 26.9999 10.8054 26.3641 11.2743 25.8952C11.7431 25.4264 12.379 25.163 13.042 25.163H15.542C16.2051 25.163 16.841 25.4264 17.3098 25.8952C17.7786 26.3641 18.042 26.9999 18.042 27.663V30.163C18.042 30.826 17.7786 31.4619 17.3098 31.9308C16.841 32.3996 16.2051 32.663 15.542 32.663H13.042C12.379 32.663 11.7431 32.3996 11.2743 31.9308C10.8054 31.4619 10.542 30.826 10.542 30.163V27.663Z" fill="white"/>
</svg>
