<svg width="72" height="70" viewBox="0 0 72 70" fill="none" xmlns="http://www.w3.org/2000/svg">
<path d="M0.00268555 25.6C0.00268555 16.6392 0.00268555 12.1587 1.74658 8.73615C3.28056 5.72556 5.72824 3.27787 8.73884 1.7439C12.1614 0 16.6418 0 25.6027 0H46.3028C55.2637 0 59.7441 0 63.1667 1.7439C66.1773 3.27787 68.625 5.72556 70.1589 8.73615C71.9028 12.1587 71.9028 16.6392 71.9028 25.6V43.649C71.9028 52.6099 71.9028 57.0903 70.1589 60.5129C68.625 63.5235 66.1773 65.9711 63.1667 67.5051C59.7441 69.249 55.2637 69.249 46.3028 69.249H25.6027C16.6418 69.249 12.1614 69.249 8.73884 67.5051C5.72824 65.9711 3.28056 63.5235 1.74658 60.5129C0.00268555 57.0903 0.00268555 52.6099 0.00268555 43.649V25.6Z" fill="#177FBF"/>
<path d="M21.6869 13.0141V20.157H14.5539V13.0141H21.6869ZM10.9874 9.44269V23.7284H25.2533V9.44269H10.9874Z" fill="white"/>
<path d="M39.5192 18.3713V25.5141H32.3863V18.3713H39.5192ZM28.8198 14.7998V29.0855H43.0857V14.7998H28.8198Z" fill="white"/>
<path d="M21.6869 34.4427V41.5856H14.5539V34.4427H21.6869ZM10.9874 30.8713V45.157H25.2533V30.8713H10.9874Z" fill="white"/>
<path d="M46.6522 23.7284V34.4427H35.9528V45.157L25.2533 45.157L25.2533 59.4427H60.9181V23.7284H46.6522ZM39.5192 38.0141H46.6522V45.157H39.5192V38.0141ZM35.9528 55.8713H28.8198V48.7284H35.9528V55.8713ZM46.6522 55.8713H39.5192V48.7284H46.6522V55.8713ZM57.3516 55.8713H50.2187V48.7284H57.3516V55.8713ZM57.3516 45.157H50.2187V38.0141H57.3516V45.157ZM50.2187 34.4427V27.2998H57.3516V34.4427H50.2187Z" fill="white"/>
</svg>
