<svg width="74" height="71" viewBox="0 0 74 71" fill="none" xmlns="http://www.w3.org/2000/svg">
<path d="M0.7323 26.1C0.7323 17.1392 0.7323 12.6587 2.4762 9.23615C4.01017 6.22556 6.45786 3.77787 9.46845 2.2439C12.891 0.5 17.3715 0.5 26.3323 0.5H47.0324C55.9933 0.5 60.4737 0.5 63.8963 2.2439C66.9069 3.77787 69.3546 6.22556 70.8885 9.23615C72.6324 12.6587 72.6324 17.1392 72.6324 26.1V44.149C72.6324 53.1099 72.6324 57.5903 70.8885 61.0129C69.3546 64.0235 66.9069 66.4711 63.8963 68.0051C60.4737 69.749 55.9933 69.749 47.0324 69.749H26.3323C17.3715 69.749 12.891 69.749 9.46845 68.0051C6.45786 66.4711 4.01017 64.0235 2.4762 61.0129C0.7323 57.5903 0.7323 53.1099 0.7323 44.149V26.1Z" fill="#177FBF"/>
<path d="M60.9504 34.4159V27.9258C62.0516 27.6213 62.8655 26.6217 62.8655 25.4267C62.8655 23.9904 61.6973 22.8222 60.261 22.8222C59.8952 22.8222 59.5486 22.8988 59.2326 23.0348L54.7035 17.374C55.0157 16.945 55.2053 16.4203 55.2053 15.8496C55.2053 14.4133 54.0371 13.2451 52.6008 13.2451C51.8329 13.2451 51.1492 13.5841 50.6724 14.1146L43.6652 10.61C43.6978 10.4472 43.715 10.2787 43.715 10.1045C43.715 8.66818 42.5469 7.5 41.1106 7.5C39.9137 7.5 38.914 8.31389 38.6095 9.41504H30.2044C29.8999 8.31389 28.9003 7.5 27.7053 7.5C26.269 7.5 25.1008 8.66818 25.1008 10.1045C25.1008 10.2787 25.12 10.4472 25.1525 10.61L20.0585 13.157C19.5817 12.6285 18.898 12.2876 18.1301 12.2876C16.6938 12.2876 15.5256 13.4558 15.5256 14.8921C15.5256 15.4149 15.6827 15.8994 15.9488 16.3073L11.6151 21.183C11.2685 21.0106 10.8836 20.9053 10.4699 20.9053C9.03363 20.9053 7.86545 22.0735 7.86545 23.5097C7.86545 24.7066 8.67934 25.7044 9.78049 26.0089V32.499C8.67934 32.8034 7.86545 33.8031 7.86545 34.9981C7.86545 36.4344 9.03363 37.6025 10.4699 37.6025C11.5155 37.6025 12.4118 36.9802 12.8273 36.0877L19.3844 37.1812C19.5204 38.493 20.6158 39.5195 21.9602 39.5195C22.1344 39.5195 22.3029 39.5003 22.4657 39.4678L24.0552 42.6448C23.5267 43.1236 23.1858 43.8073 23.1858 44.5752C23.1858 46.0115 24.354 47.1797 25.7902 47.1797C26.6903 47.1797 27.4851 46.7201 27.9542 46.023L34.6914 48.2693C34.6875 48.3153 34.676 48.3593 34.676 48.4053C34.676 49.6022 35.4899 50.6018 36.5911 50.9063V57.3945C35.4899 57.699 34.676 58.6986 34.676 59.8955C34.676 61.3318 35.8442 62.5 37.2805 62.5C38.7168 62.5 39.885 61.3318 39.885 59.8955C39.885 58.7006 39.0711 57.699 37.9699 57.3945V50.9044C39.0711 50.5999 39.885 49.6003 39.885 48.4034C39.885 47.5378 39.456 46.7756 38.8049 46.3007L40.1109 42.8153L46.1682 44.5465C46.1682 44.5561 46.1663 44.5656 46.1663 44.5752C46.1663 45.7702 46.9802 46.7718 48.0813 47.0763V57.3964C46.9802 57.7009 46.1663 58.7006 46.1663 59.8975C46.1663 61.3337 47.3345 62.5019 48.7707 62.5019C50.207 62.5019 51.3752 61.3337 51.3752 59.8975C51.3752 58.7025 50.5613 57.7009 49.4602 57.3964V47.0763C50.5613 46.7718 51.3752 45.7721 51.3752 44.5752C51.3752 44.2899 51.3177 44.0198 51.2335 43.7632L58.5643 38.8741C59.022 39.2725 59.6099 39.5195 60.261 39.5195C61.6973 39.5195 62.8655 38.3513 62.8655 36.915C62.8655 35.7201 62.0516 34.7204 60.9504 34.4159ZM45.6186 32.9547C45.6148 32.8686 45.6052 32.7824 45.5918 32.6981L51.4307 30.1032L57.7753 35.6549L45.6186 32.9547ZM43.0256 34.3106C42.3496 34.3106 41.8 33.761 41.8 33.085C41.8 32.4089 42.3496 31.8593 43.0256 31.8593C43.7016 31.8593 44.2512 32.4089 44.2512 33.085C44.2512 33.761 43.7016 34.3106 43.0256 34.3106ZM43.0256 30.4805C41.5893 30.4805 40.4212 31.6487 40.4212 33.085C40.4212 33.9506 40.8501 34.7127 41.5012 35.1858L39.2683 41.1415L35.6259 40.1017L32.8204 30.2852L43.2822 23.0923L44.4849 24.0287L50.2836 29.1036L45.0268 31.4399C44.55 30.8597 43.8357 30.4805 43.0256 30.4805ZM22.211 34.3355L20.2787 23.2225L27.1959 22.5312V22.5235C27.5712 23.5002 28.5115 24.1992 29.6203 24.1992C29.6299 24.1992 29.6376 24.1972 29.6471 24.1972L31.2232 29.7107L23.6282 34.9311C23.2356 34.6017 22.7492 34.3891 22.211 34.3355ZM29.6203 22.8203C28.9443 22.8203 28.3947 22.2707 28.3947 21.5947C28.3947 20.9187 28.9443 20.3691 29.6203 20.3691C30.2963 20.3691 30.8459 20.9187 30.8459 21.5947C30.8459 22.2707 30.2963 22.8203 29.6203 22.8203ZM24.4114 36.0667L31.6215 31.1086L34.0632 39.6555L24.5608 36.9399C24.5608 36.9304 24.5627 36.9227 24.5627 36.9131C24.5646 36.6163 24.5033 36.3348 24.4114 36.0667ZM50.9328 17.8336C51.3867 18.2147 51.9631 18.454 52.6008 18.454C52.9666 18.454 53.3132 18.3774 53.6292 18.2415L58.1583 23.9004C57.8461 24.3294 57.6565 24.8541 57.6565 25.4248C57.6565 25.5569 57.6757 25.6833 57.6948 25.8097L51.6739 28.485L45.3639 22.964L44.4753 22.2726L50.9328 17.8336ZM58.8266 34.7434L52.8172 29.4866L58.2579 27.0698C58.5949 27.4777 59.0469 27.7803 59.5716 27.9239V34.414C59.3054 34.4887 59.0526 34.5959 58.8266 34.7434ZM61.4866 25.4248C61.4866 26.1008 60.937 26.6504 60.261 26.6504C59.585 26.6504 59.0354 26.1008 59.0354 25.4248C59.0354 24.7488 59.585 24.1992 60.261 24.1992C60.937 24.1992 61.4866 24.7488 61.4866 25.4248ZM52.6008 14.624C53.2768 14.624 53.8265 15.1736 53.8265 15.8496C53.8265 16.5256 53.2768 17.0752 52.6008 17.0752C51.9248 17.0752 51.3752 16.5256 51.3752 15.8496C51.3752 15.1736 51.9248 14.624 52.6008 14.624ZM41.1106 8.87883C41.7866 8.87883 42.3362 9.42845 42.3362 10.1045C42.3362 10.7805 41.7866 11.3301 41.1106 11.3301C40.4346 11.3301 39.885 10.7805 39.885 10.1045C39.885 9.42845 40.4346 8.87883 41.1106 8.87883ZM41.1106 12.7089C41.8785 12.7089 42.5622 12.37 43.039 11.8395L50.0462 15.344C50.0136 15.5068 49.9964 15.6753 49.9964 15.8496C49.9964 16.1483 50.0577 16.4298 50.1496 16.6979L43.332 21.386L30.1106 11.1022C30.1508 11.0045 30.1776 10.8992 30.2063 10.7939H38.6114C38.914 11.895 39.9137 12.7089 41.1106 12.7089ZM27.7053 8.87883C28.3813 8.87883 28.9309 9.42845 28.9309 10.1045C28.9309 10.7805 28.3813 11.3301 27.7053 11.3301C27.0293 11.3301 26.4797 10.7805 26.4797 10.1045C26.4797 9.42845 27.0293 8.87883 27.7053 8.87883ZM25.7768 11.8395C26.2537 12.368 26.9373 12.7089 27.7053 12.7089C28.2875 12.7089 28.8218 12.5098 29.2565 12.1842L42.1409 22.2037L32.422 28.8853L30.9723 23.8104C31.7192 23.3527 32.2248 22.535 32.2248 21.5947C32.2248 20.1584 31.0566 18.9902 29.6203 18.9902C28.3315 18.9902 27.2667 19.9324 27.0599 21.1638V21.1581L20.0413 21.859L19.237 17.2399C20.1198 16.8224 20.7345 15.93 20.7345 14.8921C20.7345 14.7178 20.7154 14.5493 20.6828 14.3865L25.7768 11.8395ZM12.8924 22.5733C12.8273 22.4048 12.7488 22.2439 12.6511 22.0945L16.9849 17.2188C17.2587 17.3548 17.5594 17.4391 17.8792 17.4716L18.6663 21.9969L12.8924 22.5733ZM18.1301 13.6664C18.8061 13.6664 19.3557 14.2161 19.3557 14.8921C19.3557 15.5681 18.8061 16.1177 18.1301 16.1177C17.4541 16.1177 16.9044 15.5681 16.9044 14.8921C16.9044 14.2161 17.4541 13.6664 18.1301 13.6664ZM9.24428 23.5097C9.24428 22.8337 9.7939 22.2841 10.4699 22.2841C11.1459 22.2841 11.6955 22.8337 11.6955 23.5097C11.6955 24.1858 11.1459 24.7354 10.4699 24.7354C9.7939 24.7354 9.24428 24.1858 9.24428 23.5097ZM10.4699 36.2256C9.7939 36.2256 9.24428 35.676 9.24428 35C9.24428 34.324 9.7939 33.7744 10.4699 33.7744C11.1459 33.7744 11.6955 34.324 11.6955 35C11.6955 35.676 11.1459 36.2256 10.4699 36.2256ZM19.6027 35.8235L13.0456 34.73C12.9327 33.6556 12.1743 32.7805 11.1574 32.499V26.0089C12.1207 25.7427 12.858 24.9441 13.0284 23.9464L18.9018 23.3585L20.8513 34.5672C20.3036 34.8276 19.8613 35.2719 19.6027 35.8235ZM20.7345 36.915C20.7345 36.239 21.2841 35.6894 21.9602 35.6894C22.6362 35.6894 23.1858 36.239 23.1858 36.915C23.1858 37.591 22.6362 38.1407 21.9602 38.1407C21.2841 38.1407 20.7345 37.591 20.7345 36.915ZM25.7902 45.8008C25.1142 45.8008 24.5646 45.2512 24.5646 44.5752C24.5646 43.8992 25.1142 43.3496 25.7902 43.3496C26.4662 43.3496 27.0159 43.8992 27.0159 44.5752C27.0159 45.2512 26.4662 45.8008 25.7902 45.8008ZM28.3813 44.7112C28.3832 44.6652 28.3947 44.6212 28.3947 44.5752C28.3947 43.1389 27.2265 41.9707 25.7902 41.9707C25.616 41.9707 25.4474 41.9899 25.2847 42.0225L23.6952 38.8454C23.8829 38.6769 24.0437 38.4835 24.1759 38.2671L34.5094 41.2181L35.9304 46.1896C35.6087 46.3868 35.3271 46.6454 35.1165 46.9594L28.3813 44.7112ZM38.5061 59.8955C38.5061 60.5716 37.9565 61.1212 37.2805 61.1212C36.6045 61.1212 36.0549 60.5716 36.0549 59.8955C36.0549 59.2195 36.6045 58.6699 37.2805 58.6699C37.9565 58.6699 38.5061 59.2195 38.5061 59.8955ZM37.2805 49.6309C36.6045 49.6309 36.0549 49.0813 36.0549 48.4053C36.0549 47.7293 36.6045 47.1797 37.2805 47.1797C37.9565 47.1797 38.5061 47.7293 38.5061 48.4053C38.5061 49.0813 37.9565 49.6309 37.2805 49.6309ZM37.5122 45.8238C37.4337 45.8162 37.359 45.8008 37.2805 45.8008C37.2709 45.8008 37.2633 45.8027 37.2537 45.8027L36.0702 41.6624L38.7819 42.4361L37.5122 45.8238ZM40.5973 41.5226L42.7939 35.6645C42.8724 35.6722 42.9471 35.6875 43.0256 35.6875C44.0195 35.6875 44.8775 35.1206 45.316 34.2991L57.6699 37.0433C57.6814 37.2808 57.7274 37.5087 57.8002 37.7251L50.4694 42.6142C50.0098 42.2178 49.4219 41.9707 48.7707 41.9707C47.8305 41.9707 47.0127 42.4763 46.5531 43.2251L40.5973 41.5226ZM49.9964 59.8955C49.9964 60.5716 49.4468 61.1212 48.7707 61.1212C48.0947 61.1212 47.5451 60.5716 47.5451 59.8955C47.5451 59.2195 48.0947 58.6699 48.7707 58.6699C49.4468 58.6699 49.9964 59.2195 49.9964 59.8955ZM48.7707 45.8008C48.0947 45.8008 47.5451 45.2512 47.5451 44.5752C47.5451 43.8992 48.0947 43.3496 48.7707 43.3496C49.4468 43.3496 49.9964 43.8992 49.9964 44.5752C49.9964 45.2512 49.4468 45.8008 48.7707 45.8008ZM60.261 38.1407C59.585 38.1407 59.0354 37.591 59.0354 36.915C59.0354 36.239 59.585 35.6894 60.261 35.6894C60.937 35.6894 61.4866 36.239 61.4866 36.915C61.4866 37.591 60.937 38.1407 60.261 38.1407Z" fill="white"/>
<path d="M0.7323 26.1C0.7323 17.1392 0.7323 12.6587 2.4762 9.23615C4.01017 6.22556 6.45786 3.77787 9.46845 2.2439C12.891 0.5 17.3715 0.5 26.3323 0.5H47.0324C55.9933 0.5 60.4737 0.5 63.8963 2.2439C66.9069 3.77787 69.3546 6.22556 70.8885 9.23615C72.6324 12.6587 72.6324 17.1392 72.6324 26.1V44.149C72.6324 53.1099 72.6324 57.5903 70.8885 61.0129C69.3546 64.0235 66.9069 66.4711 63.8963 68.0051C60.4737 69.749 55.9933 69.749 47.0324 69.749H26.3323C17.3715 69.749 12.891 69.749 9.46845 68.0051C6.45786 66.4711 4.01017 64.0235 2.4762 61.0129C0.7323 57.5903 0.7323 53.1099 0.7323 44.149V26.1Z" stroke="white"/>
<path d="M60.9504 34.4159V27.9258C62.0516 27.6213 62.8655 26.6217 62.8655 25.4267C62.8655 23.9904 61.6973 22.8222 60.261 22.8222C59.8952 22.8222 59.5486 22.8988 59.2326 23.0348L54.7035 17.374C55.0157 16.945 55.2053 16.4203 55.2053 15.8496C55.2053 14.4133 54.0371 13.2451 52.6008 13.2451C51.8329 13.2451 51.1492 13.5841 50.6724 14.1146L43.6652 10.61C43.6978 10.4472 43.715 10.2787 43.715 10.1045C43.715 8.66818 42.5469 7.5 41.1106 7.5C39.9137 7.5 38.914 8.31389 38.6095 9.41504H30.2044C29.8999 8.31389 28.9003 7.5 27.7053 7.5C26.269 7.5 25.1008 8.66818 25.1008 10.1045C25.1008 10.2787 25.12 10.4472 25.1525 10.61L20.0585 13.157C19.5817 12.6285 18.898 12.2876 18.1301 12.2876C16.6938 12.2876 15.5256 13.4558 15.5256 14.8921C15.5256 15.4149 15.6827 15.8994 15.9488 16.3073L11.6151 21.183C11.2685 21.0106 10.8836 20.9053 10.4699 20.9053C9.03363 20.9053 7.86545 22.0735 7.86545 23.5097C7.86545 24.7066 8.67934 25.7044 9.78049 26.0089V32.499C8.67934 32.8034 7.86545 33.8031 7.86545 34.9981C7.86545 36.4344 9.03363 37.6025 10.4699 37.6025C11.5155 37.6025 12.4118 36.9802 12.8273 36.0877L19.3844 37.1812C19.5204 38.493 20.6158 39.5195 21.9602 39.5195C22.1344 39.5195 22.3029 39.5003 22.4657 39.4678L24.0552 42.6448C23.5267 43.1236 23.1858 43.8073 23.1858 44.5752C23.1858 46.0115 24.354 47.1797 25.7902 47.1797C26.6903 47.1797 27.4851 46.7201 27.9542 46.023L34.6914 48.2693C34.6875 48.3153 34.676 48.3593 34.676 48.4053C34.676 49.6022 35.4899 50.6018 36.5911 50.9063V57.3945C35.4899 57.699 34.676 58.6986 34.676 59.8955C34.676 61.3318 35.8442 62.5 37.2805 62.5C38.7168 62.5 39.885 61.3318 39.885 59.8955C39.885 58.7006 39.0711 57.699 37.9699 57.3945V50.9044C39.0711 50.5999 39.885 49.6003 39.885 48.4034C39.885 47.5378 39.456 46.7756 38.8049 46.3007L40.1109 42.8153L46.1682 44.5465C46.1682 44.5561 46.1663 44.5656 46.1663 44.5752C46.1663 45.7702 46.9802 46.7718 48.0813 47.0763V57.3964C46.9802 57.7009 46.1663 58.7006 46.1663 59.8975C46.1663 61.3337 47.3345 62.5019 48.7707 62.5019C50.207 62.5019 51.3752 61.3337 51.3752 59.8975C51.3752 58.7025 50.5613 57.7009 49.4602 57.3964V47.0763C50.5613 46.7718 51.3752 45.7721 51.3752 44.5752C51.3752 44.2899 51.3177 44.0198 51.2335 43.7632L58.5643 38.8741C59.022 39.2725 59.6099 39.5195 60.261 39.5195C61.6973 39.5195 62.8655 38.3513 62.8655 36.915C62.8655 35.7201 62.0516 34.7204 60.9504 34.4159ZM45.6186 32.9547C45.6148 32.8686 45.6052 32.7824 45.5918 32.6981L51.4307 30.1032L57.7753 35.6549L45.6186 32.9547ZM43.0256 34.3106C42.3496 34.3106 41.8 33.761 41.8 33.085C41.8 32.4089 42.3496 31.8593 43.0256 31.8593C43.7016 31.8593 44.2512 32.4089 44.2512 33.085C44.2512 33.761 43.7016 34.3106 43.0256 34.3106ZM43.0256 30.4805C41.5893 30.4805 40.4212 31.6487 40.4212 33.085C40.4212 33.9506 40.8501 34.7127 41.5012 35.1858L39.2683 41.1415L35.6259 40.1017L32.8204 30.2852L43.2822 23.0923L44.4849 24.0287L50.2836 29.1036L45.0268 31.4399C44.55 30.8597 43.8357 30.4805 43.0256 30.4805ZM22.211 34.3355L20.2787 23.2225L27.1959 22.5312V22.5235C27.5712 23.5002 28.5115 24.1992 29.6203 24.1992C29.6299 24.1992 29.6376 24.1972 29.6471 24.1972L31.2232 29.7107L23.6282 34.9311C23.2356 34.6017 22.7492 34.3891 22.211 34.3355ZM29.6203 22.8203C28.9443 22.8203 28.3947 22.2707 28.3947 21.5947C28.3947 20.9187 28.9443 20.3691 29.6203 20.3691C30.2963 20.3691 30.8459 20.9187 30.8459 21.5947C30.8459 22.2707 30.2963 22.8203 29.6203 22.8203ZM24.4114 36.0667L31.6215 31.1086L34.0632 39.6555L24.5608 36.9399C24.5608 36.9304 24.5627 36.9227 24.5627 36.9131C24.5646 36.6163 24.5033 36.3348 24.4114 36.0667ZM50.9328 17.8336C51.3867 18.2147 51.9631 18.454 52.6008 18.454C52.9666 18.454 53.3132 18.3774 53.6292 18.2415L58.1583 23.9004C57.8461 24.3294 57.6565 24.8541 57.6565 25.4248C57.6565 25.5569 57.6757 25.6833 57.6948 25.8097L51.6739 28.485L45.3639 22.964L44.4753 22.2726L50.9328 17.8336ZM58.8266 34.7434L52.8172 29.4866L58.2579 27.0698C58.5949 27.4777 59.0469 27.7803 59.5716 27.9239V34.414C59.3054 34.4887 59.0526 34.5959 58.8266 34.7434ZM61.4866 25.4248C61.4866 26.1008 60.937 26.6504 60.261 26.6504C59.585 26.6504 59.0354 26.1008 59.0354 25.4248C59.0354 24.7488 59.585 24.1992 60.261 24.1992C60.937 24.1992 61.4866 24.7488 61.4866 25.4248ZM52.6008 14.624C53.2768 14.624 53.8265 15.1736 53.8265 15.8496C53.8265 16.5256 53.2768 17.0752 52.6008 17.0752C51.9248 17.0752 51.3752 16.5256 51.3752 15.8496C51.3752 15.1736 51.9248 14.624 52.6008 14.624ZM41.1106 8.87883C41.7866 8.87883 42.3362 9.42845 42.3362 10.1045C42.3362 10.7805 41.7866 11.3301 41.1106 11.3301C40.4346 11.3301 39.885 10.7805 39.885 10.1045C39.885 9.42845 40.4346 8.87883 41.1106 8.87883ZM41.1106 12.7089C41.8785 12.7089 42.5622 12.37 43.039 11.8395L50.0462 15.344C50.0136 15.5068 49.9964 15.6753 49.9964 15.8496C49.9964 16.1483 50.0577 16.4298 50.1496 16.6979L43.332 21.386L30.1106 11.1022C30.1508 11.0045 30.1776 10.8992 30.2063 10.7939H38.6114C38.914 11.895 39.9137 12.7089 41.1106 12.7089ZM27.7053 8.87883C28.3813 8.87883 28.9309 9.42845 28.9309 10.1045C28.9309 10.7805 28.3813 11.3301 27.7053 11.3301C27.0293 11.3301 26.4797 10.7805 26.4797 10.1045C26.4797 9.42845 27.0293 8.87883 27.7053 8.87883ZM25.7768 11.8395C26.2537 12.368 26.9373 12.7089 27.7053 12.7089C28.2875 12.7089 28.8218 12.5098 29.2565 12.1842L42.1409 22.2037L32.422 28.8853L30.9723 23.8104C31.7192 23.3527 32.2248 22.535 32.2248 21.5947C32.2248 20.1584 31.0566 18.9902 29.6203 18.9902C28.3315 18.9902 27.2667 19.9324 27.0599 21.1638V21.1581L20.0413 21.859L19.237 17.2399C20.1198 16.8224 20.7345 15.93 20.7345 14.8921C20.7345 14.7178 20.7154 14.5493 20.6828 14.3865L25.7768 11.8395ZM12.8924 22.5733C12.8273 22.4048 12.7488 22.2439 12.6511 22.0945L16.9849 17.2188C17.2587 17.3548 17.5594 17.4391 17.8792 17.4716L18.6663 21.9969L12.8924 22.5733ZM18.1301 13.6664C18.8061 13.6664 19.3557 14.2161 19.3557 14.8921C19.3557 15.5681 18.8061 16.1177 18.1301 16.1177C17.4541 16.1177 16.9044 15.5681 16.9044 14.8921C16.9044 14.2161 17.4541 13.6664 18.1301 13.6664ZM9.24428 23.5097C9.24428 22.8337 9.7939 22.2841 10.4699 22.2841C11.1459 22.2841 11.6955 22.8337 11.6955 23.5097C11.6955 24.1858 11.1459 24.7354 10.4699 24.7354C9.7939 24.7354 9.24428 24.1858 9.24428 23.5097ZM10.4699 36.2256C9.7939 36.2256 9.24428 35.676 9.24428 35C9.24428 34.324 9.7939 33.7744 10.4699 33.7744C11.1459 33.7744 11.6955 34.324 11.6955 35C11.6955 35.676 11.1459 36.2256 10.4699 36.2256ZM19.6027 35.8235L13.0456 34.73C12.9327 33.6556 12.1743 32.7805 11.1574 32.499V26.0089C12.1207 25.7427 12.858 24.9441 13.0284 23.9464L18.9018 23.3585L20.8513 34.5672C20.3036 34.8276 19.8613 35.2719 19.6027 35.8235ZM20.7345 36.915C20.7345 36.239 21.2841 35.6894 21.9602 35.6894C22.6362 35.6894 23.1858 36.239 23.1858 36.915C23.1858 37.591 22.6362 38.1407 21.9602 38.1407C21.2841 38.1407 20.7345 37.591 20.7345 36.915ZM25.7902 45.8008C25.1142 45.8008 24.5646 45.2512 24.5646 44.5752C24.5646 43.8992 25.1142 43.3496 25.7902 43.3496C26.4662 43.3496 27.0159 43.8992 27.0159 44.5752C27.0159 45.2512 26.4662 45.8008 25.7902 45.8008ZM28.3813 44.7112C28.3832 44.6652 28.3947 44.6212 28.3947 44.5752C28.3947 43.1389 27.2265 41.9707 25.7902 41.9707C25.616 41.9707 25.4474 41.9899 25.2847 42.0225L23.6952 38.8454C23.8829 38.6769 24.0437 38.4835 24.1759 38.2671L34.5094 41.2181L35.9304 46.1896C35.6087 46.3868 35.3271 46.6454 35.1165 46.9594L28.3813 44.7112ZM38.5061 59.8955C38.5061 60.5716 37.9565 61.1212 37.2805 61.1212C36.6045 61.1212 36.0549 60.5716 36.0549 59.8955C36.0549 59.2195 36.6045 58.6699 37.2805 58.6699C37.9565 58.6699 38.5061 59.2195 38.5061 59.8955ZM37.2805 49.6309C36.6045 49.6309 36.0549 49.0813 36.0549 48.4053C36.0549 47.7293 36.6045 47.1797 37.2805 47.1797C37.9565 47.1797 38.5061 47.7293 38.5061 48.4053C38.5061 49.0813 37.9565 49.6309 37.2805 49.6309ZM37.5122 45.8238C37.4337 45.8162 37.359 45.8008 37.2805 45.8008C37.2709 45.8008 37.2633 45.8027 37.2537 45.8027L36.0702 41.6624L38.7819 42.4361L37.5122 45.8238ZM40.5973 41.5226L42.7939 35.6645C42.8724 35.6722 42.9471 35.6875 43.0256 35.6875C44.0195 35.6875 44.8775 35.1206 45.316 34.2991L57.6699 37.0433C57.6814 37.2808 57.7274 37.5087 57.8002 37.7251L50.4694 42.6142C50.0098 42.2178 49.4219 41.9707 48.7707 41.9707C47.8305 41.9707 47.0127 42.4763 46.5531 43.2251L40.5973 41.5226ZM49.9964 59.8955C49.9964 60.5716 49.4468 61.1212 48.7707 61.1212C48.0947 61.1212 47.5451 60.5716 47.5451 59.8955C47.5451 59.2195 48.0947 58.6699 48.7707 58.6699C49.4468 58.6699 49.9964 59.2195 49.9964 59.8955ZM48.7707 45.8008C48.0947 45.8008 47.5451 45.2512 47.5451 44.5752C47.5451 43.8992 48.0947 43.3496 48.7707 43.3496C49.4468 43.3496 49.9964 43.8992 49.9964 44.5752C49.9964 45.2512 49.4468 45.8008 48.7707 45.8008ZM60.261 38.1407C59.585 38.1407 59.0354 37.591 59.0354 36.915C59.0354 36.239 59.585 35.6894 60.261 35.6894C60.937 35.6894 61.4866 36.239 61.4866 36.915C61.4866 37.591 60.937 38.1407 60.261 38.1407Z" stroke="white"/>
</svg>
