<svg width="74" height="71" viewBox="0 0 74 71" fill="none" xmlns="http://www.w3.org/2000/svg">
<path d="M1.36743 26.6C1.36743 17.6392 1.36743 13.1587 3.11133 9.73615C4.6453 6.72556 7.09299 4.27787 10.1036 2.7439C13.5262 1 18.0066 1 26.9674 1H47.6676C56.6284 1 61.1088 1 64.5314 2.7439C67.542 4.27787 69.9897 6.72556 71.5237 9.73615C73.2676 13.1587 73.2676 17.6392 73.2676 26.6V44.649C73.2676 53.6099 73.2676 58.0903 71.5237 61.5129C69.9897 64.5235 67.542 66.9711 64.5314 68.5051C61.1088 70.249 56.6284 70.249 47.6676 70.249H26.9674C18.0066 70.249 13.5262 70.249 10.1036 68.5051C7.09299 66.9711 4.6453 64.5235 3.11133 61.5129C1.36743 58.0903 1.36743 53.6099 1.36743 44.649V26.6Z" fill="#177FBF"/>
<path d="M36.3491 12.4912C36.507 12.4912 36.6626 12.4844 36.8182 12.4844C48.192 12.4844 59.7031 15.0808 59.7031 20.0469V39.526H58.5588C58.3235 39.5264 58.0889 39.5509 57.8586 39.5993L57.4146 39.3771V34.9839C56.5088 35.5846 55.5376 36.0798 54.5196 36.4598C54.2187 36.0109 53.8154 35.6402 53.343 35.3784C52.8707 35.1166 52.3428 34.9712 51.8032 34.9541C55.3961 33.9023 57.4146 32.5823 57.4146 31.5052V23.5256C53.5059 26.2137 45.1346 27.6094 36.8182 27.6094C36.4795 27.6094 36.1431 27.6002 35.8067 27.5956L35.143 26.1014L37.2622 25.3108C49.5742 25.2375 57.4146 22.1712 57.4146 20.0469C57.4146 17.8973 49.3912 14.776 36.8182 14.776C36.4314 14.776 36.063 14.7875 35.6854 14.7944L36.1751 13.7241C36.3467 13.3374 36.4069 12.9104 36.3491 12.4912ZM41.3952 54.9581C39.9511 55.0566 38.4247 55.1093 36.8182 55.1093C24.0576 55.1093 16.2218 51.7727 16.2218 49.3802V34.9839C17.3508 35.7246 18.5718 36.314 19.8536 36.7371C19.5174 36.4814 19.2591 36.137 19.1076 35.7425L18.3089 33.5906C18.1807 33.5231 18.0541 33.4528 17.929 33.3798L15.6749 34.3881C15.4025 34.5126 15.1077 34.5805 14.8083 34.5875C14.509 34.5946 14.2113 34.5408 13.9333 34.4294V49.3802C13.9333 54.5891 25.7236 57.401 36.8182 57.401C38.3629 57.399 39.907 57.3432 41.4478 57.2337C41.417 57.0619 41.3994 56.888 41.3952 56.7135V54.9581ZM26.9937 36.0656C26.7991 36.4182 26.5141 36.7126 26.1682 36.9184C25.8223 37.1242 25.428 37.234 25.0256 37.2366H21.4373C26.4628 38.5193 31.6347 39.1357 36.8205 39.07C39.8814 39.0731 42.9393 38.8756 45.9744 38.4787V38.3802C45.9759 37.5014 46.3152 36.657 46.9219 36.0221C43.579 36.5389 40.2006 36.791 36.8182 36.776C33.53 36.789 30.2457 36.553 26.9937 36.0656ZM23.0873 25.776C22.182 25.776 21.2971 25.5072 20.5444 25.0036C19.7918 24.5 19.2051 23.7841 18.8587 22.9467C18.5123 22.1092 18.4216 21.1876 18.5982 20.2985C18.7748 19.4094 19.2108 18.5928 19.8509 17.9518C20.491 17.3108 21.3065 16.8743 22.1943 16.6974C23.0822 16.5206 24.0025 16.6113 24.8388 16.9582C25.6751 17.3051 26.39 17.8926 26.8929 18.6463C27.3958 19.4 27.6642 20.2862 27.6642 21.1927C27.6642 22.4083 27.182 23.5741 26.3237 24.4336C25.4653 25.2931 24.3012 25.776 23.0873 25.776ZM20.7988 21.1927C20.7988 21.6459 20.933 22.089 21.1845 22.4659C21.4359 22.8427 21.7933 23.1365 22.2115 23.3099C22.6297 23.4834 23.0898 23.5287 23.5337 23.4403C23.9777 23.3519 24.3854 23.1336 24.7055 22.8131C25.0255 22.4926 25.2435 22.0843 25.3318 21.6398C25.4201 21.1952 25.3748 20.7345 25.2016 20.3157C25.0283 19.897 24.735 19.539 24.3587 19.2872C23.9823 19.0354 23.5399 18.901 23.0873 18.901C22.4803 18.901 21.8982 19.1425 21.4691 19.5722C21.0399 20.002 20.7988 20.5849 20.7988 21.1927ZM12.0705 29.626L13.6953 26.09L13.1552 24.5935L9.35634 23.136V19.3548L12.9859 18.0027L13.661 16.5635L11.9973 12.835L14.6656 10.1606L18.1968 11.7877L19.6911 11.2469L21.1466 7.44269H24.9226L26.2728 11.0773L27.71 11.7556L31.4265 10.0964L34.0949 12.7708L32.4815 16.2954L33.0193 17.7919L36.8182 19.2494V23.0306L33.1887 24.3827L32.5113 25.8219L34.1681 29.5435L31.5089 32.2248L27.9778 30.5977L26.4834 31.1385L25.0279 34.9427H21.2519L19.9017 31.3081L18.4645 30.6321L14.7411 32.2981L12.0705 29.626ZM14.9105 23.1727L15.9037 25.9341L14.5535 28.8744L15.4941 29.8139L18.6979 28.3794L21.3549 29.6283L22.4762 32.651H23.8081L25.0622 29.3808L27.8221 28.3862L30.7514 29.7337L31.692 28.7873L30.2663 25.5812L31.5112 22.9275L34.5297 21.8046V20.4708L31.264 19.215L30.2708 16.4558L31.6096 13.5225L30.6667 12.5783L27.4697 14.0037L24.8197 12.7571L23.6983 9.73435H22.3664L21.1123 13.0046L18.3524 13.9991L15.4163 12.6471L14.478 13.5889L15.9106 16.7973L14.6633 19.4579L11.6448 20.5808V21.9146L14.9105 23.1727ZM61.9916 42.9635V45.2552C61.9916 45.5591 61.871 45.8505 61.6564 46.0654C61.4418 46.2803 61.1508 46.401 60.8473 46.401H60.2523L58.719 55.5998C58.9897 55.6352 59.2384 55.7674 59.4193 55.9722C59.6002 56.1769 59.701 56.4402 59.7031 56.7135V59.0052C59.7031 59.3091 59.5825 59.6005 59.3679 59.8154C59.1533 60.0303 58.8623 60.151 58.5588 60.151H56.2703C55.9669 60.151 55.6758 60.0303 55.4612 59.8154C55.2467 59.6005 55.1261 59.3091 55.1261 59.0052V58.336L48.2126 56.9519C48.1616 57.2061 48.0249 57.4351 47.8253 57.6004C47.6257 57.7656 47.3754 57.8571 47.1164 57.8594H44.8279C44.5244 57.8594 44.2334 57.7386 44.0188 57.5237C43.8042 57.3089 43.6837 57.0174 43.6837 56.7135V54.4219C43.6851 54.1819 43.7626 53.9485 43.9049 53.7554C44.0471 53.5623 44.2469 53.4193 44.4755 53.3471L43.3129 48.6927H42.5394C42.2359 48.6927 41.9449 48.572 41.7303 48.3571C41.5157 48.1422 41.3952 47.8507 41.3952 47.5469V45.2552C41.3952 44.9513 41.5157 44.6598 41.7303 44.445C41.9449 44.2301 42.2359 44.1094 42.5394 44.1094H44.6769L48.2606 40.5206V38.3802C48.2606 38.0763 48.3812 37.7848 48.5958 37.57C48.8104 37.3551 49.1014 37.2344 49.4049 37.2344H51.6934C51.9968 37.2344 52.2879 37.3551 52.5025 37.57C52.7171 37.7848 52.8376 38.0763 52.8376 38.3802V39.6475L57.7899 42.1271C57.998 41.9304 58.2727 41.8199 58.5588 41.8177H60.8473C61.1508 41.8177 61.4418 41.9384 61.6564 42.1533C61.871 42.3682 61.9916 42.6596 61.9916 42.9635ZM45.9721 45.4064V46.0298L50.6201 47.1916C50.6748 47.0235 50.7684 46.8707 50.8933 46.7457C51.0182 46.6206 51.1708 46.5269 51.3386 46.4721L50.1784 41.8177H49.5559L45.9721 45.4064ZM52.0481 41.7466L53.2083 46.401H53.9819C54.1501 46.4024 54.3159 46.4415 54.467 46.5156L57.4146 44.5425V43.9925L52.4623 41.5106C52.3428 41.6187 52.2015 41.6999 52.0481 41.7489V41.7466ZM58.0851 46.291L55.1261 48.2664V49.8385C55.1239 50.125 55.0136 50.4001 54.8172 50.6085L56.9752 54.9283L58.3986 46.3689C58.291 46.3579 58.1854 46.3316 58.0851 46.291ZM45.1803 48.6216L46.3429 53.276H46.9654L50.5491 49.6873V49.0662L45.9012 47.8998C45.8466 48.0686 45.7527 48.222 45.6274 48.3475C45.5021 48.473 45.3489 48.5669 45.1803 48.6216ZM55.1742 56.4752C55.2123 56.2779 55.3024 56.0943 55.435 55.9435L52.9589 50.9844H51.8238L48.2606 54.5662V55.091L55.1742 56.4752Z" fill="white"/>
<path d="M1.36743 26.6C1.36743 17.6392 1.36743 13.1587 3.11133 9.73615C4.6453 6.72556 7.09299 4.27787 10.1036 2.7439C13.5262 1 18.0066 1 26.9674 1H47.6676C56.6284 1 61.1088 1 64.5314 2.7439C67.542 4.27787 69.9897 6.72556 71.5237 9.73615C73.2676 13.1587 73.2676 17.6392 73.2676 26.6V44.649C73.2676 53.6099 73.2676 58.0903 71.5237 61.5129C69.9897 64.5235 67.542 66.9711 64.5314 68.5051C61.1088 70.249 56.6284 70.249 47.6676 70.249H26.9674C18.0066 70.249 13.5262 70.249 10.1036 68.5051C7.09299 66.9711 4.6453 64.5235 3.11133 61.5129C1.36743 58.0903 1.36743 53.6099 1.36743 44.649V26.6Z" stroke="white"/>
<path d="M36.3491 12.4912C36.507 12.4912 36.6626 12.4844 36.8182 12.4844C48.192 12.4844 59.7031 15.0808 59.7031 20.0469V39.526H58.5588C58.3235 39.5264 58.0889 39.5509 57.8586 39.5993L57.4146 39.3771V34.9839C56.5088 35.5846 55.5376 36.0798 54.5196 36.4598C54.2187 36.0109 53.8154 35.6402 53.343 35.3784C52.8707 35.1166 52.3428 34.9712 51.8032 34.9541C55.3961 33.9023 57.4146 32.5823 57.4146 31.5052V23.5256C53.5059 26.2137 45.1346 27.6094 36.8182 27.6094C36.4795 27.6094 36.1431 27.6002 35.8067 27.5956L35.143 26.1014L37.2622 25.3108C49.5742 25.2375 57.4146 22.1712 57.4146 20.0469C57.4146 17.8973 49.3912 14.776 36.8182 14.776C36.4314 14.776 36.063 14.7875 35.6854 14.7944L36.1751 13.7241C36.3467 13.3374 36.4069 12.9104 36.3491 12.4912ZM41.3952 54.9581C39.9511 55.0566 38.4247 55.1093 36.8182 55.1093C24.0576 55.1093 16.2218 51.7727 16.2218 49.3802V34.9839C17.3508 35.7246 18.5718 36.314 19.8536 36.7371C19.5174 36.4814 19.2591 36.137 19.1076 35.7425L18.3089 33.5906C18.1807 33.5231 18.0541 33.4528 17.929 33.3798L15.6749 34.3881C15.4025 34.5126 15.1077 34.5805 14.8083 34.5875C14.509 34.5946 14.2113 34.5408 13.9333 34.4294V49.3802C13.9333 54.5891 25.7236 57.401 36.8182 57.401C38.3629 57.399 39.907 57.3432 41.4478 57.2337C41.417 57.0619 41.3994 56.888 41.3952 56.7135V54.9581ZM26.9937 36.0656C26.7991 36.4182 26.5141 36.7126 26.1682 36.9184C25.8223 37.1242 25.428 37.234 25.0256 37.2366H21.4373C26.4628 38.5193 31.6347 39.1357 36.8205 39.07C39.8814 39.0731 42.9393 38.8756 45.9744 38.4787V38.3802C45.9759 37.5014 46.3152 36.657 46.9219 36.0221C43.579 36.5389 40.2006 36.791 36.8182 36.776C33.53 36.789 30.2457 36.553 26.9937 36.0656ZM23.0873 25.776C22.182 25.776 21.2971 25.5072 20.5444 25.0036C19.7918 24.5 19.2051 23.7841 18.8587 22.9467C18.5123 22.1092 18.4216 21.1876 18.5982 20.2985C18.7748 19.4094 19.2108 18.5928 19.8509 17.9518C20.491 17.3108 21.3065 16.8743 22.1943 16.6974C23.0822 16.5206 24.0025 16.6113 24.8388 16.9582C25.6751 17.3051 26.39 17.8926 26.8929 18.6463C27.3958 19.4 27.6642 20.2862 27.6642 21.1927C27.6642 22.4083 27.182 23.5741 26.3237 24.4336C25.4653 25.2931 24.3012 25.776 23.0873 25.776ZM20.7988 21.1927C20.7988 21.6459 20.933 22.089 21.1845 22.4659C21.4359 22.8427 21.7933 23.1365 22.2115 23.3099C22.6297 23.4834 23.0898 23.5287 23.5337 23.4403C23.9777 23.3519 24.3854 23.1336 24.7055 22.8131C25.0255 22.4926 25.2435 22.0843 25.3318 21.6398C25.4201 21.1952 25.3748 20.7345 25.2016 20.3157C25.0283 19.897 24.735 19.539 24.3587 19.2872C23.9823 19.0354 23.5399 18.901 23.0873 18.901C22.4803 18.901 21.8982 19.1425 21.4691 19.5722C21.0399 20.002 20.7988 20.5849 20.7988 21.1927ZM12.0705 29.626L13.6953 26.09L13.1552 24.5935L9.35634 23.136V19.3548L12.9859 18.0027L13.661 16.5635L11.9973 12.835L14.6656 10.1606L18.1968 11.7877L19.6911 11.2469L21.1466 7.44269H24.9226L26.2728 11.0773L27.71 11.7556L31.4265 10.0964L34.0949 12.7708L32.4815 16.2954L33.0193 17.7919L36.8182 19.2494V23.0306L33.1887 24.3827L32.5113 25.8219L34.1681 29.5435L31.5089 32.2248L27.9778 30.5977L26.4834 31.1385L25.0279 34.9427H21.2519L19.9017 31.3081L18.4645 30.6321L14.7411 32.2981L12.0705 29.626ZM14.9105 23.1727L15.9037 25.9341L14.5535 28.8744L15.4941 29.8139L18.6979 28.3794L21.3549 29.6283L22.4762 32.651H23.8081L25.0622 29.3808L27.8221 28.3862L30.7514 29.7337L31.692 28.7873L30.2663 25.5812L31.5112 22.9275L34.5297 21.8046V20.4708L31.264 19.215L30.2708 16.4558L31.6096 13.5225L30.6667 12.5783L27.4697 14.0037L24.8197 12.7571L23.6983 9.73435H22.3664L21.1123 13.0046L18.3524 13.9991L15.4163 12.6471L14.478 13.5889L15.9106 16.7973L14.6633 19.4579L11.6448 20.5808V21.9146L14.9105 23.1727ZM61.9916 42.9635V45.2552C61.9916 45.5591 61.871 45.8505 61.6564 46.0654C61.4418 46.2803 61.1508 46.401 60.8473 46.401H60.2523L58.719 55.5998C58.9897 55.6352 59.2384 55.7674 59.4193 55.9722C59.6002 56.1769 59.701 56.4402 59.7031 56.7135V59.0052C59.7031 59.3091 59.5825 59.6005 59.3679 59.8154C59.1533 60.0303 58.8623 60.151 58.5588 60.151H56.2703C55.9669 60.151 55.6758 60.0303 55.4612 59.8154C55.2467 59.6005 55.1261 59.3091 55.1261 59.0052V58.336L48.2126 56.9519C48.1616 57.2061 48.0249 57.4351 47.8253 57.6004C47.6257 57.7656 47.3754 57.8571 47.1164 57.8594H44.8279C44.5244 57.8594 44.2334 57.7386 44.0188 57.5237C43.8042 57.3089 43.6837 57.0174 43.6837 56.7135V54.4219C43.6851 54.1819 43.7626 53.9485 43.9049 53.7554C44.0471 53.5623 44.2469 53.4193 44.4755 53.3471L43.3129 48.6927H42.5394C42.2359 48.6927 41.9449 48.572 41.7303 48.3571C41.5157 48.1422 41.3952 47.8507 41.3952 47.5469V45.2552C41.3952 44.9513 41.5157 44.6598 41.7303 44.445C41.9449 44.2301 42.2359 44.1094 42.5394 44.1094H44.6769L48.2606 40.5206V38.3802C48.2606 38.0763 48.3812 37.7848 48.5958 37.57C48.8104 37.3551 49.1014 37.2344 49.4049 37.2344H51.6934C51.9968 37.2344 52.2879 37.3551 52.5025 37.57C52.7171 37.7848 52.8376 38.0763 52.8376 38.3802V39.6475L57.7899 42.1271C57.998 41.9304 58.2727 41.8199 58.5588 41.8177H60.8473C61.1508 41.8177 61.4418 41.9384 61.6564 42.1533C61.871 42.3682 61.9916 42.6596 61.9916 42.9635ZM45.9721 45.4064V46.0298L50.6201 47.1916C50.6748 47.0235 50.7684 46.8707 50.8933 46.7457C51.0182 46.6206 51.1708 46.5269 51.3386 46.4721L50.1784 41.8177H49.5559L45.9721 45.4064ZM52.0481 41.7466L53.2083 46.401H53.9819C54.1501 46.4024 54.3159 46.4415 54.467 46.5156L57.4146 44.5425V43.9925L52.4623 41.5106C52.3428 41.6187 52.2015 41.6999 52.0481 41.7489V41.7466ZM58.0851 46.291L55.1261 48.2664V49.8385C55.1239 50.125 55.0136 50.4001 54.8172 50.6085L56.9752 54.9283L58.3986 46.3689C58.291 46.3579 58.1854 46.3316 58.0851 46.291ZM45.1803 48.6216L46.3429 53.276H46.9654L50.5491 49.6873V49.0662L45.9012 47.8998C45.8466 48.0686 45.7527 48.222 45.6274 48.3475C45.5021 48.473 45.3489 48.5669 45.1803 48.6216ZM55.1742 56.4752C55.2123 56.2779 55.3024 56.0943 55.435 55.9435L52.9589 50.9844H51.8238L48.2606 54.5662V55.091L55.1742 56.4752Z" stroke="white"/>
</svg>
