<svg width="23" height="25" viewBox="0 0 23 25" fill="none" xmlns="http://www.w3.org/2000/svg">
<ellipse cx="11.4375" cy="12" rx="11.25" ry="12" fill="white"/>
<path d="M17.765 6.58977C17.6693 6.34337 17.4845 6.15484 17.2573 6.07178L17.2557 6.07119L17.2541 6.0706L17.2507 6.0694L17.2437 6.06695L17.2288 6.06196C17.2184 6.05857 17.2071 6.05511 17.1949 6.05164C17.1706 6.0447 17.1427 6.03771 17.1114 6.03124C17.0486 6.01827 16.9722 6.00741 16.8822 6.00263C16.7015 5.99303 16.4701 6.00808 16.186 6.0758C15.7122 6.18873 15.0971 6.44672 14.3248 6.97534C14.2744 7.00989 14.2232 7.0456 14.1714 7.0825C14.1195 7.0688 14.0676 7.05557 14.0157 7.04282C12.6075 6.69725 11.15 6.69725 9.7418 7.04282C9.68982 7.05558 9.6379 7.0688 9.58605 7.08251C9.53421 7.0456 9.48305 7.00989 9.43254 6.97534C8.6595 6.44644 8.04299 6.18851 7.56796 6.07566C7.28318 6.00802 7.05123 5.99305 6.87042 6.00262C6.7803 6.00738 6.70398 6.01817 6.64126 6.03105C6.60996 6.03748 6.58218 6.04439 6.55792 6.05127C6.5458 6.0547 6.53457 6.05813 6.52422 6.06147L6.50938 6.06641L6.50247 6.06881L6.49913 6.06999L6.4975 6.07058L6.49589 6.07116C6.26671 6.15432 6.08052 6.34468 5.98498 6.59351C5.6291 7.52037 5.53464 8.54242 5.70604 9.52286C5.71436 9.57049 5.72332 9.61803 5.7329 9.66546C5.69616 9.72113 5.66046 9.77756 5.62581 9.8347C5.09136 10.7161 4.80708 11.7674 4.82041 12.8469C4.82169 15.159 5.45483 16.7424 6.5256 17.7613C7.13172 18.3381 7.83521 18.6911 8.54223 18.9136C8.62314 18.9391 8.70409 18.9628 8.78495 18.985C8.77314 19.0288 8.76214 19.073 8.75195 19.1174C8.70914 19.3041 8.68075 19.4958 8.66762 19.6904C8.66643 19.708 8.66568 19.7256 8.66538 19.7432L8.63544 21.455L8.63527 21.4735C8.63527 21.4789 8.63527 21.4842 8.63527 21.4895C8.58096 21.5039 8.52575 21.5145 8.46996 21.5214C8.29806 21.5426 8.12395 21.5271 7.95756 21.476C7.79117 21.4249 7.63566 21.3391 7.5 21.2233C7.36434 21.1076 7.25118 20.964 7.16717 20.8009L7.15851 20.7846C6.92721 20.3561 6.60772 19.9895 6.22404 19.7124C5.84034 19.4352 5.40255 19.2551 4.94379 19.1857C4.46131 19.1128 4.01473 19.4708 3.94634 19.9855C3.87795 20.5001 4.21364 20.9765 4.69613 21.0494C4.88881 21.0786 5.07298 21.1543 5.23466 21.2711C5.39444 21.3864 5.52817 21.539 5.62579 21.7175C5.82096 22.0933 6.08306 22.4247 6.3975 22.6931C6.71472 22.9638 7.07894 23.165 7.46929 23.2849C7.84937 23.4016 8.24682 23.439 8.63996 23.3952C8.64076 23.621 8.64132 23.7942 8.64132 23.8822C8.64132 24.402 9.0156 24.8234 9.47729 24.8234H14.3102C14.7718 24.8234 15.1461 24.402 15.1461 23.8822V20.3147C15.1689 19.9107 15.1301 19.5057 15.032 19.1174C15.0185 19.0639 15.0038 19.0107 14.9881 18.9579C15.0408 18.9439 15.0935 18.9291 15.1461 18.9136C15.8736 18.6999 16.6003 18.3504 17.2246 17.763C18.3013 16.7498 18.9358 15.165 18.9371 12.8469C18.9504 11.7674 18.6661 10.7161 18.1316 9.8347C18.097 9.77746 18.0612 9.72095 18.0244 9.66519C18.0339 9.61785 18.0428 9.57041 18.0511 9.52286C18.2221 8.54054 18.1252 7.51662 17.765 6.58977Z" fill="black"/>
</svg>
